<svg width="21" height="21" viewBox="0 0 21 21" fill="none" xmlns="http://www.w3.org/2000/svg">
<circle cx="10.4998" cy="10.4999" r="7.91667" transform="rotate(90 10.4998 10.4999)" fill="#7676D3"/>
<circle cx="10.5" cy="10.5" r="10" transform="rotate(90 10.5 10.5)" stroke="#7676D3" stroke-dasharray="2 2"/>
<path d="M10.6585 15.8834C7.59795 15.8834 5.11686 13.4023 5.11686 10.3417C5.11686 7.28114 7.59795 4.80005 10.6585 4.80005C13.7191 4.80005 16.2002 7.28114 16.2002 10.3417C16.2002 13.4023 13.7191 15.8834 10.6585 15.8834ZM10.6585 7.75465C9.22973 7.75465 8.07146 8.91292 8.07146 10.3417C8.07146 11.7705 9.22973 12.9288 10.6585 12.9288C12.0873 12.9288 13.2456 11.7705 13.2456 10.3417C13.2456 8.91292 12.0873 7.75465 10.6585 7.75465Z" fill="#F6F7FC"/>
</svg>
